<svg width="32" height="12" viewBox="0 0 32 12" fill="none" xmlns="http://www.w3.org/2000/svg">
<path d="M31.9997 0L8.589 9.968C6.64767 10.7902 5.01745 11.2013 3.69834 11.2013C2.205 11.2013 1.12189 10.6782 0.449005 9.632C0.0267827 8.96 -0.0976617 8.10755 0.0756716 7.07467C0.249894 6.04178 0.710338 4.94044 1.457 3.77067C2.07923 2.824 3.10012 1.57956 4.51967 0.0373332C4.03755 0.795303 3.68432 1.62791 3.47434 2.50133C3.101 4.09422 3.437 5.264 4.48234 6.01067C4.98012 6.35911 5.66456 6.53333 6.53567 6.53333C7.23167 6.53333 8.01567 6.42133 8.88767 6.19733L31.9997 0Z" fill="black"/>
</svg>
