<svg width="32" height="25" viewBox="0 0 32 25" fill="none" xmlns="http://www.w3.org/2000/svg">
<path d="M31.7935 0.34458C31.2375 -0.366087 30.2655 0.203247 29.8375 0.451247C26.7922 2.24591 26.3429 5.40591 25.2815 7.22058C24.4469 8.67391 23.0789 9.74058 21.8415 9.82325C20.9269 9.88858 19.9349 9.71125 18.9509 9.28325C16.5415 8.24191 15.2442 6.89391 14.9282 6.65658C14.2789 6.16325 9.28819 1.30325 5.22152 1.10458C5.22152 1.10458 4.72552 0.10458 4.60152 0.0872469C4.30552 0.0539136 4.00152 0.68858 3.78019 0.755247C3.58019 0.825913 3.22952 0.0725802 3.02685 0.105914C2.82285 0.13258 2.62419 0.887247 2.22685 1.27525C1.93352 1.55925 1.57885 1.54191 1.37752 1.89258C1.30819 2.02058 1.33219 2.24591 1.25352 2.45258C1.08419 2.87925 0.518854 2.92458 0.513521 3.38191C0.513521 3.88991 0.989521 3.98725 1.40552 4.34191C1.73619 4.62458 1.75885 4.82458 2.14419 4.95658C2.48819 5.07391 2.98685 4.70725 3.42952 4.83925C3.79885 4.94725 4.15352 5.02591 4.23219 5.40325C4.30419 5.74458 4.23219 6.28058 3.77885 6.22058C3.62952 6.20058 2.98152 5.98858 2.18152 6.07391C1.21485 6.17658 0.110854 6.48591 0.00285447 7.55391C-0.0518122 8.14991 0.688188 8.84725 1.40952 8.70858C1.90419 8.61391 1.67085 8.03391 1.94152 7.75391C2.29752 7.39391 4.30419 9.01258 6.17085 9.01258C6.96152 9.01258 7.54552 8.81258 8.12685 8.20591C8.18019 8.16725 8.25085 8.06991 8.33352 8.05925C8.42652 8.08247 8.51458 8.12221 8.59352 8.17658C10.1015 9.37258 11.2389 11.7766 16.7669 11.8046C17.5429 11.8139 18.4335 12.1766 19.1615 12.8406C19.8015 13.4179 20.1802 14.3406 20.5442 15.2739C21.1015 16.6779 22.0922 18.0326 23.6002 19.5446C23.6802 19.6352 24.9202 20.5846 25.0135 20.6552C25.0295 20.6686 25.1255 20.8779 25.0842 20.9952C25.0575 21.9152 24.9202 24.5552 26.9042 24.6659C27.3922 24.6926 27.2709 24.3579 27.2709 24.1192C27.2642 23.6646 27.1842 23.2059 27.4215 22.7326C27.7589 22.0952 26.7202 21.7872 26.7429 20.3912C26.7682 19.3459 25.8829 19.5232 25.4309 18.7246C25.1775 18.2672 24.9402 18.0152 24.9642 17.4632C25.0615 14.2899 24.2749 12.1992 23.8909 11.6939C23.5882 11.3019 23.3269 11.1566 23.6149 10.9739C25.2682 9.88725 25.6482 8.87525 25.6482 8.87525C26.5282 6.82058 27.3229 4.94858 28.4149 4.11525C28.6362 3.95525 29.2002 3.52858 29.5509 3.36858C30.5682 2.88591 31.1149 2.59791 31.4015 2.31791C31.8762 1.86858 32.2482 0.913913 31.7935 0.34458Z" fill="black"/>
</svg>
