<svg width="31" height="16" viewBox="0 0 31 16" fill="none" xmlns="http://www.w3.org/2000/svg">
<path d="M16.2253 5.436L17.7067 2.85333L22.7387 2.53067L22.9147 2.216L18.264 1.89333L19.3573 0.00800006H27.984C30.6373 0.00800006 32.5973 0.961333 31.8333 3.74133C31.6067 4.592 30.528 6.71867 27.3587 7.60667C28.0347 7.68667 29.7053 8.428 29.412 10.3493C28.9 13.76 24.492 15.3813 22.0347 15.3813L11.8467 15.3893L11.34 13.416L16.68 13.0427L16.8627 12.7267L11.068 12.3747L10.4453 10.0347L18.6827 9.55067L18.8653 9.24267L4.07067 8.31867L4.78267 7.08533L20.7133 6.052L20.8973 5.744L16.2253 5.436ZM22.892 5.94933L24.3587 5.94133C25.3427 5.93467 26.3613 5.488 26.736 4.584C27.0813 3.74133 26.6187 3.02267 26.0027 3.02933H24.58L22.892 5.94933ZM21.1987 8.876L19.4307 11.9493H21.1173C21.9027 11.9493 23.304 11.56 23.736 10.4453C24.1387 9.404 23.3987 8.876 22.8853 8.876H21.1987ZM8.34667 13.6213L7.32 15.3747L0 15.388L0.712 14.1573L8.34667 13.6213ZM8.86 0L14.7493 0.00800006L15.1973 1.672L8.16267 1.232L8.86 0ZM15.5267 2.99333L16.172 5.436L6.116 4.776L6.82 3.54933L15.5267 2.99333ZM10.4067 10.0347L9.13067 12.2493L2.03733 11.8467L2.74933 10.6147L10.4067 10.0347Z" fill="black"/>
</svg>
